<svg id="Layer_1" data-name="Layer 1" xmlns="http://www.w3.org/2000/svg" viewBox="0 0 390 358.97"><defs><style>.cls-1{fill:#fff;}</style></defs><path class="cls-1" d="M257,72.44,337.89,9.73s4.22,0,2.87,3l-65.44,63s-3.55,3.34-.52,6.55,4.4-.19,5.21-1.25,68.5-60.43,68.5-60.43,4.71-.47,3,2.92L288.11,87.16s-4.33,3.47-1,7c0,0,2.61,1.5,6.35-2.94s64.74-60.71,64.74-60.71,3.79-.57,3.33,2.58L299.43,99.43s-3.76,3.29-.92,6.31,5.31-.66,7-2S369,42,369,42s3.52-.35,3.08,2.56l-51.74,62.36s-26.59,30.71-45.54,37.36c-3,1-14.26,2.89-16.64,2.77a42.13,42.13,0,0,0-30.42,11.12c-6.44,6.05-188.25,201.31-188.25,201.31-26.21-6.77-28.95-30.8-28.95-30.8S197.82,179,217.1,148.12c0,0,12.13-13.68,12.61-36.43C229.71,111.69,234.68,87.46,257,72.44Z" transform="translate(0 -0.52)"/><path class="cls-1" d="M157.59,138.15,38.71,16.82S27.49,11.23,25.48,30.29c-2,19.73,17.84,71.3,120.74,140.44,0,0,156.76,150.35,181.35,182.3,0,0,26.46-6.71,29.72-31.47,0,0-170.89-139.37-190.53-170.38C165.09,148.54,157.59,138.15,157.59,138.15Z" transform="translate(0 -0.52)"/><path class="cls-1" d="M25.89,149.62c12.35,0,18.65,3.22,22.81,6.71,6.84,5.77,8.86,13.42,8.86,20.12,0,8.73-3.49,16.37-10.47,21.07a24.87,24.87,0,0,1-9.79,3.89l27.91,37.7H43.47l-23.88-36H17.44v36H0V149.62Zm-8.45,41.19h5c3.35,0,17.17-.4,17.17-13.55s-13.69-13.42-16.91-13.42H17.44Z" transform="translate(0 -0.52)"/><path class="cls-1" d="M339.55,149.62c12.48,0,23.35,1.34,33.28,8.72,10.86,8.19,17.17,21.2,17.17,36.09s-6.17,27.78-18,36.09c-10.46,7.38-20.26,8.59-32.73,8.59H316.21V149.62Zm-5.9,74.46H339c4.42,0,14.08-.26,21.87-5.9C368,213.08,372,204,372,194.43s-3.89-18.51-11-23.88-16.1-5.9-22-5.9h-5.37Z" transform="translate(0 -0.52)"/><path class="cls-1" d="M211.78,15.54H181.72v20H209.9v15H181.72V90H164.28V.52h47.5Z" transform="translate(0 -0.52)"/></svg>